<svg width="32" height="26" viewBox="0 0 32 26" fill="none" xmlns="http://www.w3.org/2000/svg">
<path d="M31.7778 8.24277H27.0744L18.2921 0L16.8415 1.47903L24.048 8.24277H7.70161L14.8057 1.47364L13.3437 0.0053976L4.69878 8.24277H0V10.2924H1.26524L3.28568 23.0095C3.55206 24.6864 5.11971 26 6.8545 26H24.787C26.5175 26 28.0924 24.6914 28.3724 23.0208L30.5051 10.2925H31.7778V8.24277ZM26.3047 22.6891C26.1922 23.3609 25.4828 23.9503 24.787 23.9503H6.8545C6.16258 23.9503 5.46236 23.3636 5.35613 22.6947L3.3857 10.2924H28.3818L26.3047 22.6891Z" fill="white"/>
</svg>
